<?xml version="1.0" standalone="no"?>
<!DOCTYPE svg PUBLIC "-//W3C//DTD SVG 20010904//EN"
 "http://www.w3.org/TR/2001/REC-SVG-20010904/DTD/svg10.dtd">
<svg version="1.0" xmlns="http://www.w3.org/2000/svg"
 width="320.000000pt" height="320.000000pt" viewBox="0 0 320.000000 320.000000"
 preserveAspectRatio="xMidYMid meet">
<metadata>
Created by potrace 1.11, written by Peter Selinger 2001-2013
</metadata>
<g transform="translate(0.000000,320.000000) scale(0.100000,-0.100000)"
fill="#000000" stroke="none">
<path d="M650 3169 c-45 -30 -92 -72 -60 -53 34 19 123 84 114 83 -5 0 -29
-14 -54 -30z"/>
<path d="M1612 3112 c30 -33 60 -77 67 -100 8 -23 18 -42 22 -42 5 0 24 -31
43 -69 35 -69 36 -78 10 -139 0 -1 -15 5 -32 14 -33 16 -92 12 -92 -7 0 -5 15
-32 33 -61 93 -146 147 -396 114 -522 -9 -32 -21 -64 -28 -70 -9 -8 -10 -4 -3
19 15 57 13 278 -3 262 -2 -3 -8 -48 -13 -102 -11 -106 -20 -134 -32 -95 -5
16 -5 10 -2 -16 5 -40 4 -42 -43 -76 -95 -69 -143 -85 -143 -45 0 18 -2 19
-10 7 -14 -22 -13 7 5 105 12 69 12 89 -1 148 -8 38 -18 76 -23 85 -4 9 -11
35 -15 57 -8 51 -26 118 -31 113 -4 -3 10 -73 21 -111 4 -14 -3 -12 -37 11
-38 27 -49 29 -106 26 -58 -4 -64 -2 -73 18 -7 18 -9 19 -9 6 -1 -24 -38 -23
-46 1 -3 11 -13 25 -22 33 -15 12 -15 10 0 -19 10 -18 17 -36 17 -42 0 -13
-67 -34 -80 -26 -6 4 -22 -1 -35 -9 l-25 -16 -1 57 -1 58 -16 -88 -15 -87 -61
-19 c-33 -11 -54 -20 -45 -20 9 -1 35 6 58 14 23 8 48 14 54 12 7 -1 12 5 12
13 0 8 5 16 10 17 6 0 8 -4 6 -10 -2 -7 -4 -18 -4 -26 0 -8 -8 -16 -18 -18
-16 -5 -34 -31 -26 -40 2 -2 23 10 45 27 44 31 49 31 32 -1 -7 -13 -7 -19 0
-19 5 0 10 4 10 9 0 11 89 65 96 58 2 -2 -2 -17 -11 -33 -21 -40 -28 -88 -21
-129 7 -35 26 -40 26 -6 0 9 6 25 13 35 11 15 17 16 40 5 15 -7 26 -17 24 -23
-5 -15 48 -46 78 -46 13 0 32 11 43 24 10 14 32 26 47 28 23 2 30 -2 35 -22
10 -37 -8 -79 -40 -95 -15 -8 -30 -21 -33 -30 -4 -8 -15 -15 -25 -15 -32 0
-116 32 -139 53 -13 11 -26 18 -29 14 -11 -10 16 -37 59 -59 56 -28 124 -26
182 6 39 22 46 24 52 10 3 -8 0 -34 -6 -56 -7 -22 -10 -42 -8 -45 3 -2 8 5 12
17 6 20 7 20 20 3 11 -15 11 -22 -2 -46 -23 -45 -9 -42 16 3 12 22 26 40 32
40 13 0 11 -17 -5 -33 -14 -13 -40 -87 -41 -115 0 -7 -6 -17 -14 -21 -10 -7
-10 -10 -1 -13 10 -3 10 -17 0 -71 -8 -37 -11 -70 -7 -74 11 -10 16 0 20 38 2
19 7 41 12 49 14 22 25 -23 15 -62 -5 -18 -14 -55 -21 -81 -7 -28 -20 -52 -31
-58 -18 -10 -20 -8 -14 23 4 23 0 17 -13 -19 -22 -58 -55 -212 -48 -219 5 -5
28 77 32 109 1 11 6 22 11 25 5 4 15 18 21 32 11 23 11 22 6 -10 -4 -19 -17
-57 -30 -85 -12 -27 -23 -55 -23 -62 0 -7 -6 -16 -13 -20 -8 -5 -19 -45 -26
-98 -7 -49 -15 -93 -18 -98 -12 -20 -182 -77 -272 -91 -31 -4 -50 -19 -51 -38
0 -22 188 14 282 54 52 22 52 22 69 123 12 74 39 149 123 335 l51 115 -3 109
c-2 81 0 111 10 118 11 6 10 10 -1 17 -10 7 -12 19 -6 47 4 22 7 49 7 62 0 12
6 22 13 22 7 0 23 9 37 19 13 11 42 29 65 41 37 19 43 27 49 66 3 24 10 47 16
50 5 3 6 -6 1 -23 -4 -15 -8 -41 -8 -58 0 -16 -4 -33 -10 -37 -6 -5 -5 -8 3
-8 8 0 12 -20 12 -65 0 -41 4 -65 11 -65 13 0 11 -6 -25 -105 -29 -79 -30 -85
-16 -85 6 0 10 5 10 12 0 29 55 146 82 175 35 36 52 34 75 -11 26 -50 56 -235
36 -223 -10 6 -22 -42 -38 -145 -3 -20 -22 -80 -41 -133 -20 -53 -33 -99 -30
-102 3 -4 6 1 6 10 0 9 4 17 10 17 5 0 14 19 21 43 6 23 21 65 34 92 57 131
71 361 26 442 -36 63 -101 81 -114 33 -3 -11 -10 -20 -16 -20 -17 0 -3 153 20
223 10 31 19 73 19 91 0 35 -23 156 -35 189 -6 14 -2 17 25 17 28 0 32 3 27
23 -4 12 -9 42 -12 67 -4 34 -3 39 4 20 5 -14 12 -38 16 -54 6 -29 6 -29 21
-7 8 11 22 21 30 21 23 0 22 44 -2 71 -8 8 -14 27 -14 42 0 32 -35 127 -58
159 -10 13 -37 66 -62 118 -24 52 -58 113 -76 135 -54 66 -92 105 -105 105 -6
0 13 -26 43 -58z m-292 -897 c0 -9 -6 -12 -15 -9 -8 4 -12 10 -9 15 8 14 24
10 24 -6z m437 -177 c-2 -13 -4 -5 -4 17 -1 22 1 32 4 23 2 -10 2 -28 0 -40z
m-245 -213 c-2 -14 -6 -25 -8 -25 -2 0 -4 11 -4 25 0 14 4 25 9 25 4 0 6 -11
3 -25z"/>
<path d="M544 3088 l-19 -23 23 19 c21 18 27 26 19 26 -2 0 -12 -10 -23 -22z"/>
<path d="M435 2990 c-10 -11 -16 -22 -14 -24 2 -2 12 7 22 20 22 29 17 32 -8
4z"/>
<path d="M390 2937 c-8 -7 -37 -38 -65 -67 -46 -50 -44 -50 18 10 37 35 67 66
67 67 0 5 -5 3 -20 -10z"/>
<path d="M702 2565 c-1 -42 36 -166 37 -128 1 7 -4 22 -9 35 -6 13 -14 50 -19
83 l-9 60 0 -50z"/>
<path d="M626 2573 c-9 -18 -16 -38 -16 -45 0 -18 17 3 22 27 3 12 9 -1 16
-34 14 -60 49 -147 57 -139 3 3 -1 21 -9 40 -8 19 -24 68 -34 109 l-19 73 -17
-31z"/>
<path d="M1355 2530 c3 -5 8 -10 11 -10 2 0 4 5 4 10 0 6 -5 10 -11 10 -5 0
-7 -4 -4 -10z"/>
<path d="M598 2473 c-4 -72 -3 -82 3 -75 11 12 18 92 8 98 -5 3 -10 -7 -11
-23z"/>
<path d="M1900 2494 c0 -6 14 -23 30 -39 17 -16 30 -24 30 -19 0 6 -13 23 -30
39 -16 16 -30 24 -30 19z"/>
<path d="M1880 2435 c8 -11 29 -37 47 -57 18 -21 58 -86 88 -145 67 -129 216
-373 265 -434 20 -24 47 -61 60 -81 14 -21 29 -38 34 -38 5 0 3 6 -3 13 -6 8
-7 18 -3 22 4 5 1 5 -5 1 -8 -4 -19 6 -30 28 -10 19 -43 70 -74 113 -31 43
-71 105 -90 138 -18 33 -49 85 -69 115 -36 53 -80 133 -80 145 0 14 19 3 25
-14 3 -11 23 -29 45 -40 38 -20 38 -19 -23 45 -111 118 -202 209 -187 189z"/>
<path d="M468 2343 c3 -75 13 -151 27 -203 l6 -25 -15 25 c-20 32 -20 25 0
-52 18 -68 65 -169 72 -150 2 6 -1 20 -7 30 -9 17 -7 20 22 25 17 2 68 2 112
-1 73 -5 79 -4 66 11 -23 29 -117 67 -164 67 -44 0 -45 1 -65 49 -23 53 -47
184 -37 201 8 12 -5 100 -14 100 -3 0 -5 -35 -3 -77z"/>
<path d="M740 2411 c0 -6 4 -13 10 -16 6 -3 7 1 4 9 -7 18 -14 21 -14 7z"/>
<path d="M2026 2372 c42 -31 144 -86 144 -78 0 4 -156 98 -175 105 -5 2 9 -10
31 -27z"/>
<path d="M191 2303 c-1 -81 27 -199 64 -274 18 -35 91 -126 153 -189 3 -3 -1
6 -8 20 l-13 25 36 -28 c39 -30 56 -35 37 -12 -11 13 -10 15 6 9 13 -4 10 3
-11 22 -16 15 -29 31 -27 36 1 5 -12 14 -28 20 -21 7 -29 15 -26 25 3 8 2 11
-3 8 -5 -3 -20 13 -32 35 -26 46 -39 51 -39 14 0 -14 4 -23 9 -20 8 5 35 -43
28 -51 -11 -10 -80 115 -71 129 4 7 3 8 -4 4 -16 -10 -42 80 -57 199 l-13 100
-1 -72z"/>
<path d="M830 2350 l-45 -7 42 -1 c23 -1 45 3 48 8 3 6 5 9 3 8 -2 0 -23 -4
-48 -8z"/>
<path d="M1677 2260 c-4 -14 -6 -36 -6 -50 1 -18 4 -14 10 14 10 44 6 75 -4
36z"/>
<path d="M531 2259 c-1 -9 7 -23 17 -30 15 -12 16 -12 6 1 -6 8 -14 22 -17 30
-5 13 -6 12 -6 -1z"/>
<path d="M573 2235 c0 -22 2 -30 4 -17 2 12 2 30 0 40 -3 9 -5 -1 -4 -23z"/>
<path d="M2350 2163 c85 -72 237 -239 232 -255 -1 -5 2 -7 7 -4 23 14 166
-225 200 -336 31 -99 41 -335 16 -394 -7 -18 -11 -42 -8 -53 3 -12 1 -21 -6
-21 -17 0 -22 37 -18 138 1 52 0 86 -3 77 -10 -29 -27 21 -40 115 -23 173 -60
237 -239 420 l-74 75 77 -89 c149 -173 181 -237 222 -443 25 -126 31 -213 15
-213 -5 0 -24 24 -42 53 -74 119 -249 379 -277 410 -27 30 -24 10 5 -35 15
-23 30 -45 33 -48 9 -9 236 -353 306 -465 38 -60 83 -123 100 -140 45 -45 141
-187 170 -253 29 -65 54 -182 54 -250 -1 -133 -60 -262 -135 -298 -18 -8 -46
-33 -61 -55 -14 -21 -31 -39 -36 -39 -5 0 -6 5 -2 11 13 21 22 79 13 85 -5 3
-9 -6 -9 -19 0 -13 -11 -46 -25 -73 -14 -27 -25 -53 -25 -57 0 -27 164 113
222 189 35 47 43 67 54 137 27 162 16 251 -47 388 -33 71 -182 283 -192 273
-3 -3 -13 15 -22 40 -14 37 -15 51 -6 78 7 18 17 98 23 178 l11 145 -28 90
c-39 125 -116 275 -192 373 -85 109 -206 231 -268 271 l-50 32 45 -38z"/>
<path d="M1665 2150 c3 -5 8 -10 11 -10 2 0 4 5 4 10 0 6 -5 10 -11 10 -5 0
-7 -4 -4 -10z"/>
<path d="M1421 2049 c-7 -24 -21 -60 -32 -79 l-20 -35 25 28 c25 27 51 98 44
119 -2 6 -10 -9 -17 -33z"/>
<path d="M2360 1965 c45 -45 50 -50 50 -39 0 7 -80 84 -88 84 -3 0 14 -20 38
-45z"/>
<path d="M460 1969 c0 -13 25 -39 39 -39 19 0 22 -20 6 -49 -9 -19 -11 -32 -5
-36 6 -3 10 3 10 13 0 11 6 25 14 31 11 10 20 6 40 -16 14 -15 26 -31 26 -35
0 -5 5 -8 10 -8 21 0 8 19 -55 84 -62 63 -85 78 -85 55z"/>
<path d="M990 1920 c-72 -10 -154 -49 -157 -75 -1 -11 0 -13 3 -5 9 28 101 64
197 76 50 6 74 11 52 11 -22 0 -65 -3 -95 -7z"/>
<path d="M1220 1916 c0 -12 29 -76 35 -76 3 0 -2 17 -10 37 -16 38 -25 52 -25
39z"/>
<path d="M1383 1823 c-40 -32 -108 -80 -152 -108 -44 -27 -80 -56 -80 -62 -1
-7 1 -13 4 -13 6 0 157 96 244 156 36 24 61 44 56 44 -5 0 -4 5 3 12 14 14 16
28 4 28 -4 0 -40 -26 -79 -57z"/>
<path d="M637 1744 c3 -7 20 -18 38 -24 19 -6 35 -16 38 -23 2 -8 5 -8 10 0 5
8 -11 21 -42 36 -29 14 -47 18 -44 11z"/>
<path d="M387 1698 c-9 -29 -15 -54 -13 -56 2 -2 12 20 21 48 9 28 15 53 13
55 -2 3 -12 -19 -21 -47z"/>
<path d="M1686 1710 c-9 -22 -16 -52 -16 -66 0 -13 -11 -46 -24 -72 -13 -26
-24 -59 -24 -73 0 -15 -7 -42 -16 -59 -20 -40 -21 -59 -2 -40 17 19 36 75 36
107 0 13 9 41 20 63 11 22 20 51 20 65 0 14 4 25 10 25 8 0 30 60 30 83 0 21
-20 2 -34 -33z"/>
<path d="M840 1681 c37 -13 118 -29 178 -36 60 -8 65 -19 30 -68 -28 -40 -24
-2 -42 -382 -2 -48 -1 -70 4 -55 4 14 8 46 9 71 1 45 2 47 36 53 36 7 95 -15
95 -35 0 -6 -11 -25 -24 -42 -30 -42 -45 -83 -16 -47 11 14 20 29 20 33 0 5
21 31 48 58 113 120 148 161 170 201 l23 43 -47 -50 c-25 -27 -67 -75 -93
-105 l-46 -55 -40 23 c-31 18 -50 22 -84 17 -41 -5 -43 -4 -37 18 3 12 6 29 6
37 0 24 83 24 136 1 52 -24 51 -11 -2 14 -22 10 -53 15 -82 13 l-47 -3 4 75
c2 47 10 88 22 110 10 19 20 43 23 53 3 10 15 17 31 17 15 0 24 4 20 10 -3 6
-30 10 -59 10 -29 0 -77 4 -107 9 -88 15 -158 22 -129 12z"/>
<path d="M718 1608 c2 -44 10 -80 19 -93 15 -20 15 -20 9 0 -3 11 -8 53 -12
93 -4 39 -9 72 -13 72 -3 0 -4 -32 -3 -72z"/>
<path d="M1472 1660 c0 -14 2 -19 5 -12 2 6 2 18 0 25 -3 6 -5 1 -5 -13z"/>
<path d="M1943 1629 c16 -10 16 -13 -13 -51 -16 -23 -28 -44 -25 -46 3 -3 23
1 44 8 26 8 38 17 34 26 -7 18 24 18 59 0 15 -8 41 -17 59 -21 19 -4 33 -15
37 -27 2 -10 10 -17 17 -14 7 2 31 -9 54 -26 23 -16 41 -25 41 -20 0 6 -18 23
-40 39 -22 15 -53 40 -69 54 -16 15 -61 37 -102 49 -41 13 -78 27 -83 32 -6 4
-15 8 -20 8 -6 0 -3 -5 7 -11z"/>
<path d="M356 1615 c-9 -26 -7 -32 5 -12 6 10 9 21 6 23 -2 3 -7 -2 -11 -11z"/>
<path d="M970 1568 c0 -19 2 -20 10 -8 13 19 13 30 0 30 -5 0 -10 -10 -10 -22z"/>
<path d="M2040 1535 c18 -13 37 -22 42 -19 5 4 -4 15 -21 25 -45 27 -61 23
-21 -6z"/>
<path d="M253 1449 c-32 -44 -79 -108 -105 -142 -92 -120 -138 -192 -144 -227
-7 -41 3 -31 40 40 13 25 54 79 90 120 36 41 64 81 61 88 -2 7 25 55 61 107
36 52 63 95 61 95 -3 0 -31 -36 -64 -81z"/>
<path d="M951 1488 c-6 -18 -20 -44 -31 -58 -29 -37 -111 -160 -117 -176 -3
-9 0 -12 9 -9 10 4 21 -7 33 -35 31 -70 88 -148 130 -178 l40 -29 -4 46 c-2
25 -6 40 -8 34 -9 -26 -44 9 -98 101 -30 52 -55 99 -55 106 0 6 21 43 46 81
47 72 79 138 71 146 -3 2 -10 -11 -16 -29z"/>
<path d="M706 1467 c-3 -13 -24 -44 -46 -70 -39 -44 -40 -47 -39 -114 1 -74
-13 -170 -36 -247 -8 -27 -15 -63 -15 -79 0 -16 -5 -47 -12 -69 -8 -28 -9 -41
-1 -46 17 -11 44 -126 53 -226 6 -64 13 -92 24 -98 20 -11 21 -28 3 -28 -25 0
-47 36 -47 76 0 45 -26 211 -38 244 -7 19 -11 12 -26 -42 -10 -34 -24 -98 -31
-141 l-12 -78 24 -10 c17 -6 23 -14 19 -25 -4 -10 -1 -14 6 -12 7 3 15 15 19
29 5 22 7 20 14 -13 5 -28 16 -43 41 -58 18 -12 36 -30 40 -42 10 -34 -23
-353 -43 -404 -4 -12 31 -14 215 -14 l221 0 6 53 c4 30 2 138 -5 241 -6 103
-10 189 -8 192 16 15 57 -286 58 -423 l0 -63 455 0 c250 0 455 1 455 3 0 1
-14 29 -30 61 -25 48 -30 71 -30 127 0 40 -5 71 -11 75 -16 9 -6 105 21 214
17 68 21 107 18 198 l-3 113 -42 45 c-24 24 -49 44 -57 44 -16 0 -42 28 -33
36 3 3 20 -1 36 -9 43 -21 39 -4 -5 22 -51 30 -67 28 -59 -8 3 -16 1 -47 -4
-69 -9 -31 -8 -47 4 -76 15 -37 12 -81 -8 -93 -7 -4 -8 11 -3 45 4 34 3 52 -4
52 -5 0 -10 -18 -10 -41 0 -60 -25 -105 -71 -126 -22 -10 -37 -23 -34 -31 2
-7 -4 -12 -14 -12 -15 0 -19 11 -24 63 -3 34 -14 82 -26 107 -11 25 -21 61
-21 80 0 19 -7 46 -15 60 -8 14 -14 33 -15 44 0 29 -53 196 -62 196 -4 0 -8
-15 -8 -32 -1 -34 -19 -68 -38 -68 -12 0 -52 -121 -52 -157 0 -44 -18 -14 -34
57 -9 39 -13 81 -10 95 6 25 -4 33 -21 16 -16 -13 -107 -41 -116 -35 -5 3 -24
1 -42 -5 -51 -17 -168 -20 -197 -6 -14 7 -55 47 -92 89 -51 58 -72 90 -84 131
-12 43 -20 55 -36 55 -14 0 -18 -5 -15 -15 4 -8 2 -17 -4 -21 -5 -3 -23 -33
-39 -67 -17 -33 -36 -68 -44 -76 -8 -9 -20 -28 -26 -41 -19 -45 -2 84 19 142
33 90 52 169 60 240 7 66 -1 93 -13 45z m774 -547 c0 -13 -1 -13 -10 0 -5 8
-10 22 -10 30 0 13 1 13 10 0 5 -8 10 -22 10 -30z m-451 -177 c0 -49 -4 -110
-8 -138 l-7 -50 -7 79 c-9 99 -9 181 0 189 18 18 23 0 22 -80z"/>
<path d="M2260 1440 c0 -14 26 -36 60 -50 26 -11 40 -29 70 -93 37 -76 38 -83
34 -156 -10 -146 -37 -218 -105 -276 -35 -28 -32 -46 4 -26 22 12 77 87 92
126 24 62 37 345 16 345 -4 0 -14 15 -24 33 -19 34 -66 67 -97 67 -10 0 -22 5
-25 10 -4 6 7 10 26 10 41 0 35 5 -13 13 -21 3 -38 2 -38 -3z"/>
<path d="M217 1358 c-10 -11 -16 -22 -13 -26 6 -6 35 27 36 41 0 10 -2 8 -23
-15z"/>
<path d="M1560 1366 c-6 -8 -10 -25 -7 -38 4 -20 4 -19 6 5 0 16 5 26 11 22 6
-3 10 1 10 9 0 20 -4 20 -20 2z"/>
<path d="M1500 1216 c0 -7 -2 -29 -5 -47 -4 -25 -3 -29 3 -14 17 37 23 75 12
75 -5 0 -10 -6 -10 -14z"/>
<path d="M2104 1120 c0 -63 1 -89 3 -57 2 31 2 83 0 115 -2 31 -3 5 -3 -58z"/>
<path d="M236 1173 c-6 -14 -5 -15 5 -6 7 7 10 15 7 18 -3 3 -9 -2 -12 -12z"/>
<path d="M2628 1131 c9 -16 19 -28 22 -26 9 5 54 -65 46 -72 -3 -4 -13 2 -22
13 -12 15 -12 13 2 -15 13 -27 18 -31 26 -20 8 11 9 10 4 -3 -3 -10 8 -44 23
-75 42 -85 90 -233 105 -326 8 -45 15 -71 16 -57 2 22 3 21 12 -10 6 -20 9
-104 6 -200 l-4 -165 15 108 c12 87 12 127 4 200 -17 140 -50 282 -83 350 -16
34 -44 99 -63 144 -19 45 -52 104 -73 132 -43 55 -62 67 -36 22z"/>
<path d="M1887 1030 c3 -52 7 -97 9 -99 7 -8 3 92 -6 144 -6 36 -7 23 -3 -45z"/>
<path d="M1456 1081 c-4 -7 -5 -15 -2 -18 9 -9 19 4 14 18 -4 11 -6 11 -12 0z"/>
<path d="M2293 1035 c0 -33 2 -45 4 -27 2 18 2 45 0 60 -2 15 -4 0 -4 -33z"/>
<path d="M120 989 c-64 -94 -113 -200 -118 -258 -3 -39 -2 -52 7 -47 6 4 11
16 11 26 0 25 59 161 110 254 48 87 42 100 -10 25z"/>
<path d="M2566 957 c3 -10 9 -15 12 -12 3 3 0 11 -7 18 -10 9 -11 8 -5 -6z"/>
<path d="M1766 947 c3 -10 9 -15 12 -12 3 3 0 11 -7 18 -10 9 -11 8 -5 -6z"/>
<path d="M1781 894 c0 -11 3 -14 6 -6 3 7 2 16 -1 19 -3 4 -6 -2 -5 -13z"/>
<path d="M2280 894 c0 -6 -22 -33 -48 -62 -52 -56 -53 -63 -9 -33 28 18 73 89
63 99 -3 3 -6 1 -6 -4z"/>
<path d="M2590 895 c0 -5 5 -17 10 -25 5 -8 10 -10 10 -5 0 6 -5 17 -10 25 -5
8 -10 11 -10 5z"/>
<path d="M405 803 c-21 -32 -55 -78 -75 -103 -37 -46 -140 -241 -140 -267 0
-8 -5 -11 -12 -7 -6 4 -8 3 -5 -3 6 -10 -32 -118 -73 -208 -19 -42 -40 -139
-40 -187 0 -29 24 -40 33 -15 4 9 6 9 6 0 1 -7 8 -13 16 -13 11 0 13 7 7 33
-17 78 -8 149 29 227 20 41 42 93 49 115 31 99 46 135 85 205 22 41 57 98 76
127 63 95 91 144 87 149 -3 2 -22 -22 -43 -53z"/>
<path d="M2121 824 c-1 -13 8 -25 24 -32 15 -7 25 -8 25 -2 0 6 -6 10 -13 10
-8 0 -19 10 -25 23 -10 21 -11 21 -11 1z"/>
<path d="M2625 800 c30 -148 41 -334 25 -426 -7 -41 -16 -71 -19 -65 -4 5 -6
-8 -6 -30 0 -34 1 -38 12 -23 21 29 36 126 35 229 -1 106 -26 297 -42 324 -8
13 -9 11 -5 -9z"/>
<path d="M2337 595 c3 -22 7 -42 9 -44 8 -9 2 45 -6 64 -7 14 -8 8 -3 -20z"/>
<path d="M2112 580 c0 -8 4 -26 8 -40 6 -20 8 -21 8 -5 0 11 -3 29 -8 40 -5
12 -8 14 -8 5z"/>
<path d="M2812 540 c0 -19 2 -27 5 -17 2 9 2 25 0 35 -3 9 -5 1 -5 -18z"/>
<path d="M2355 429 c0 -70 -4 -121 -11 -130 -15 -18 -26 -79 -15 -79 28 0 50
191 34 280 -7 35 -9 20 -8 -71z"/>
<path d="M2127 368 c-7 -137 -10 -153 -43 -235 -19 -48 -42 -98 -50 -110 -12
-19 -12 -23 -1 -23 8 0 31 43 55 103 44 110 53 101 23 -25 -15 -62 -16 -78 -5
-78 19 0 24 11 50 118 23 93 33 231 14 187 -5 -11 -9 -38 -10 -60 -1 -22 -6
-51 -10 -65 -5 -15 -7 15 -4 75 3 55 1 136 -3 180 l-9 80 -7 -147z"/>
<path d="M2838 427 c5 -108 9 -122 10 -32 1 44 -2 85 -6 92 -4 7 -6 -20 -4
-60z"/>
<path d="M504 478 c-5 -7 -3 -8 6 -3 10 6 12 4 6 -11 -14 -37 -43 -184 -72
-369 -2 -16 11 15 30 71 29 87 56 229 56 302 0 24 -14 30 -26 10z"/>
<path d="M2811 414 c0 -11 3 -14 6 -6 3 7 2 16 -1 19 -3 4 -6 -2 -5 -13z"/>
<path d="M2831 289 c0 -15 -3 -42 -6 -60 l-5 -34 11 34 c5 18 8 45 6 60 l-4
26 -2 -26z"/>
<path d="M2581 284 c0 -11 3 -14 6 -6 3 7 2 16 -1 19 -3 4 -6 -2 -5 -13z"/>
<path d="M2779 258 c0 -7 -4 -44 -10 -83 -31 -228 -5 -231 46 -5 5 22 4 22 -4
5 -7 -15 -10 -7 -10 38 -1 31 -5 57 -11 57 -5 0 -10 -6 -11 -12z"/>
<path d="M2635 210 c-4 -17 -5 -34 -2 -36 2 -3 7 10 11 27 8 42 0 50 -9 9z"/>
<path d="M2601 199 c-6 -18 -9 -34 -7 -36 2 -2 9 10 15 28 6 18 9 34 7 36 -2
2 -9 -10 -15 -28z"/>
<path d="M2607 95 c-9 -37 -15 -70 -13 -72 7 -8 38 96 34 118 -2 13 -10 -6
-21 -46z"/>
<path d="M2576 133 c-3 -10 -22 -42 -41 -71 -40 -61 -40 -62 -21 -62 13 0 82
137 73 146 -3 3 -8 -3 -11 -13z"/>
<path d="M2717 35 c-15 -19 -24 -35 -20 -34 10 0 57 59 51 64 -2 2 -16 -11
-31 -30z"/>
</g>
</svg>
